<svg width="631" height="96" viewBox="0 0 631 96" fill="none" xmlns="http://www.w3.org/2000/svg">
<path d="M53.1 1.8V37.5H24.9V1.8H0V94.8H24.9V58.8H53.1V94.8H78V1.8H53.1ZM119.1 96C140.7 96 153.6 84.9 153.6 66.9C153.6 54 147.9 46.2 133.5 40.2L120.9 34.8C114.9 32.1 112.8 30.3 112.8 27C112.8 22.8 117 20.1 123.3 20.1C133.2 20.1 141.3 24.9 143.7 24.9C144.3 24.9 144.9 24.9 145.5 24.3C146.1 24 146.4 23.4 146.4 22.8L152.1 6.9C143.1 2.1 132.9 -0.299999 122.7 -0.299999C102 -0.299999 88.5 10.8 88.5 27C88.5 39.6 94.2 48 107.1 53.7L121.8 60.3C126.6 62.4 128.7 64.8 128.7 68.1C128.7 73.2 125.1 75.6 117.6 75.6C106.2 75.6 96.3 70.5 94.2 70.5C93.6 70.5 92.7 70.8 92.4 71.1C91.8 71.4 91.5 72 91.2 72.6L86.7 89.1C97.5 93.9 108.3 96 119.1 96ZM225.6 94.5V76.5C225.6 74.1 224.7 73.2 222.3 73.2H190.8V1.8H165.9V94.8H225.6V94.5ZM269.4 96C295.2 96 308.1 82.5 308.1 55.2V1.8H283.2V53.4C283.2 68.7 279.3 74.4 269.4 74.4C259.5 74.4 255.6 68.7 255.6 53.4V1.8H230.7V55.5C230.4 82.5 243.3 96.3 269.4 96Z" fill="black"/>
<path d="M333.3 94.5H354.9C355.8 94.5 356.4 94.2 356.4 93V89.4C356.4 89.1 356.4 89.1 356.4 88.8C356.4 88.5 356.1 88.5 356.1 88.2C356.1 88.2 355.8 87.9 355.5 87.9C355.2 87.9 355.2 87.9 354.9 87.9H339.3V54.3C339.3 53.1 339 52.8 337.8 52.8H333C332.1 52.8 331.5 53.4 331.5 54.3V93C331.5 94.2 332.1 94.5 333.3 94.5ZM371.1 95.4C374.7 95.4 378 93.9 380.7 91.5V93.3C380.7 94.2 381.3 94.5 382.2 94.5H386.1C387.3 94.5 387.6 93.9 387.6 93V66.3C387.6 65.4 387 64.8 386.1 64.8H381.6C380.7 64.8 380.1 65.1 380.1 66.3V85.8C378 87.6 375.6 88.5 372.9 88.8C369.9 88.8 368.4 87 368.4 82.8V66C368.4 65.1 368.1 64.5 366.9 64.5H363C361.8 64.5 361.5 65.1 361.5 66V84C361.2 91.5 364.5 95.4 371.1 95.4ZM402 89.1L415.2 69.9C415.5 69.3 415.8 68.7 415.8 67.8V66C415.8 65.4 415.5 64.8 414.3 64.8H394.8C393.9 64.8 393.6 65.4 393.6 66V68.7C393.6 69.9 393.9 70.2 395.1 70.2H406.2L393.3 89.4C392.7 90 392.7 90.6 392.7 91.5V93C392.7 93.3 392.7 93.3 392.7 93.6C392.7 93.9 393 93.9 393 94.2C393 94.2 393.3 94.5 393.6 94.5C393.9 94.5 393.9 94.5 394.2 94.5H414.9C415.2 94.5 415.2 94.5 415.5 94.5C415.5 94.5 415.8 94.5 415.8 94.2L416.1 93.9C416.1 93.9 416.1 93.6 416.1 93.3V90C416.1 89.1 415.5 89.1 414.9 89.1H402ZM434.1 95.4C437.7 95.4 441.3 94.8 444.6 93.6C444.9 93.6 444.9 93.3 445.2 93.3C445.2 93.3 445.5 93 445.5 92.7C445.5 92.4 445.5 92.4 445.5 92.1C445.5 91.8 445.5 91.8 445.5 91.5L444.6 88.5C444.3 87.9 444 87.6 443.1 87.9C440.7 88.8 438.3 89.4 435.6 89.4C433.5 89.4 431.1 88.8 429.6 87.3C428.1 85.8 426.9 83.7 426.9 81.6H444.9C446.4 81.6 447 81.3 447 79.8V78.9C447 69.9 442.2 64.2 434.4 64.2C425.4 64.2 419.1 70.5 419.1 79.8C418.8 89.4 424.5 95.4 434.1 95.4ZM426.6 76.5C426.6 74.7 427.5 72.9 428.7 71.7C429.9 70.5 431.7 69.6 433.5 69.6C434.4 69.6 435 69.9 435.9 70.2C436.5 70.5 437.4 71.1 437.7 71.4C438.3 72 438.6 72.6 438.9 73.5C439.2 74.1 439.2 75 439.2 75.9V76.5H426.6ZM453.9 94.5H458.4C459.3 94.5 459.9 93.9 459.9 93V73.5C460.5 72.6 461.4 72 462.6 71.4C463.5 70.8 464.7 70.5 465.9 70.5C466.5 70.5 466.8 70.5 467.7 70.5C468.6 70.5 468.9 70.5 468.9 69.6L469.5 65.1C469.5 64.8 469.5 64.8 469.5 64.5C469.5 64.2 469.5 64.2 469.2 63.9C468.6 63.6 468 63.3 467.1 63.6C465.6 63.6 464.1 63.9 462.9 64.8C461.7 65.4 460.5 66.6 459.6 67.8V66C459.6 65.1 459 64.8 458.1 64.8H453.9C452.7 64.8 452.4 65.1 452.4 66.3V93C452.4 94.2 452.7 94.5 453.9 94.5ZM474.9 94.5H479.4C480.6 94.5 480.9 93.9 480.9 93V73.5C482.7 71.7 485.4 70.8 487.8 70.5C491.1 70.5 492.6 72.3 492.6 76.5V93C492.6 94.2 493.2 94.5 494.1 94.5H498.6C499.5 94.5 500.1 93.9 500.1 93V75C500.1 67.8 496.8 64.2 490.5 64.2C486.9 64.2 483.3 65.7 480.6 68.1V66C480.6 65.1 480 64.8 479.1 64.8H475.2C474.9 64.8 474.9 64.8 474.6 64.8C474.3 64.8 474.3 65.1 474 65.1C474 65.1 473.7 65.4 473.7 65.7C473.7 66 473.7 66 473.7 66.3V93C473.7 93.3 473.7 93.3 473.7 93.6C473.7 93.9 474 93.9 474 94.2C474 94.2 474.3 94.5 474.6 94.5C474.3 94.5 474.6 94.5 474.9 94.5Z" fill="black"/>
<path d="M338.1 43.5C339 43.5 339.6 43.2 339.6 42V25.2H356.7V42C356.7 43.2 357.3 43.5 358.2 43.5H363C363.9 43.5 364.5 43.2 364.5 42V3C364.5 1.8 363.9 1.5 363 1.5H358.2C357.3 1.5 356.7 1.8 356.7 3V18.3H339.6V3C339.6 1.8 339 1.5 338.1 1.5H333.3C332.4 1.5 331.5 1.8 331.5 3V42C331.5 43.2 332.1 43.5 333.3 43.5H338.1ZM384.9 44.1C393.9 44.1 399.9 37.8 399.9 28.5C399.9 18.6 394.5 12.9 385.2 12.9C375.9 12.9 370.2 18.9 370.2 28.5C370.2 38.4 375.9 44.4 384.9 44.1ZM384.9 38.4C380.4 38.4 378 34.8 378 28.5C378 22.5 380.7 18.9 385.2 18.9C389.7 18.9 392.1 22.2 392.1 28.5C392.1 34.8 389.4 38.4 384.9 38.4ZM419.1 44.1C422.1 44.1 425.1 43.5 428.1 42.3C429 42 429 41.4 428.7 40.5L427.8 37.5C427.5 36.9 427.2 36.9 426.6 36.9C424.5 37.8 422.4 38.4 420.3 38.4C415.2 38.4 412.2 34.8 412.2 28.5C412.2 22.2 415.2 18.9 420.6 18.9C422.7 18.9 424.5 19.2 426.6 20.1C427.2 20.4 427.8 20.4 428.1 19.5L429 16.2C429.3 15.3 429 15 428.4 14.7C425.7 13.5 423 12.9 420.3 12.9C411 12.9 405 19.2 405 28.8C404.4 38.4 409.8 44.1 419.1 44.1ZM435.3 43.5H440.1C441 43.5 441.3 42.9 441.3 42V22.5C443.4 20.7 446.1 19.8 448.8 19.5C452.4 19.5 453.3 21.9 453.3 25.5V42C453.3 43.2 453.9 43.5 454.8 43.5H459C460.2 43.5 460.5 43.2 460.5 42V24C460.5 17.4 457.8 13.2 450.9 13.2C447.3 13.2 444 14.4 441.3 16.8V3C441.3 1.8 440.7 1.5 439.8 1.5H435.9C435 1.5 434.1 1.8 434.1 3V42C434.1 42.3 434.1 42.3 434.1 42.6C434.1 42.9 434.4 42.9 434.4 43.2C434.4 43.2 434.7 43.5 435 43.5H435.3ZM476.4 44.1C483.6 44.1 488.4 40.2 488.4 34.5C488.4 32.7 487.8 30.9 486.9 29.7C486 28.2 484.5 27.3 482.7 26.7L477 24.6C474.9 23.7 474 22.8 474 21.3C474 19.8 475.5 18.6 477.6 18.6C480 18.6 482.4 18.9 484.5 20.1L484.8 20.4C485.1 20.4 485.1 20.4 485.4 20.4C485.4 20.4 485.7 20.4 485.7 20.1L486 19.8L487.2 16.5C487.5 15.6 487.2 15.3 486.6 15C483.9 13.8 480.6 13.2 477.6 13.2C471 13.2 466.5 16.8 466.5 21.9C466.5 23.7 467.1 25.5 468.3 27C469.5 28.5 471 29.7 472.8 30L477.6 31.8C480.3 32.7 481.2 33.9 481.2 35.4C481.2 37.5 479.4 38.7 476.4 38.7C473.7 38.7 471.3 37.8 468.9 36.9C468.3 36.6 467.7 36.9 467.4 37.5L466.2 40.8V41.1C466.2 41.4 466.2 41.4 466.2 41.4L466.5 41.7L466.8 42C469.8 43.5 473.1 44.1 476.4 44.1ZM506.7 44.1C509.7 44.1 512.7 43.5 515.7 42.3C516.6 42 516.6 41.4 516.3 40.5L515.4 37.5C515.1 36.9 514.8 36.9 514.2 36.9C512.1 37.8 510 38.4 507.9 38.4C502.8 38.4 499.8 34.8 499.8 28.5C499.8 22.2 502.8 18.9 508.2 18.9C510.3 18.9 512.4 19.2 514.2 20.1C514.8 20.4 515.4 20.4 515.7 19.5L516.6 16.2C516.9 15.3 516.6 15 516 14.7C513.3 13.5 510.6 12.9 507.9 12.9C498.6 12.9 492.6 19.2 492.6 28.8C492.3 38.4 497.7 44.1 506.7 44.1ZM528 43.5C528.9 43.5 529.2 42.9 529.2 42V22.5C531.3 20.7 534 19.8 536.7 19.5C540.3 19.5 541.2 21.9 541.2 25.5V42C541.2 43.2 541.8 43.5 542.7 43.5H546.9C548.1 43.5 548.4 43.2 548.4 42V24C548.4 17.4 545.7 13.2 538.8 13.2C535.2 13.2 531.9 14.4 529.2 16.8V3C529.2 1.8 528.6 1.5 527.7 1.5H523.5C522.6 1.5 522 1.8 522 3V42C522 42.3 522 42.3 522 42.6C522 42.9 522.3 42.9 522.3 43.2C522.3 43.2 522.6 43.5 522.9 43.5C523.2 43.5 523.2 43.5 523.5 43.5H528ZM564.9 44.1C568.5 44.1 571.8 42.6 574.5 40.2V42C574.5 42.9 575.1 43.2 576 43.2H579.9C581.1 43.2 581.4 42.6 581.4 41.7V15.3C581.4 14.4 580.8 13.8 579.9 13.8H576C575.1 13.8 574.5 14.1 574.5 15.3V34.8C572.4 36.6 570 37.5 567.3 37.8C564.3 37.8 562.8 36 562.8 31.8V15.3C562.8 14.4 562.5 13.8 561.3 13.8H557.1C555.9 13.8 555.6 14.4 555.6 15.3V33.3C555.3 40.5 558.6 44.4 564.9 44.1ZM590.4 43.5H595.2C596.1 43.5 596.4 42.9 596.4 42V3C596.4 1.8 595.8 1.5 594.9 1.5H590.7C589.8 1.5 589.2 1.8 589.2 3V42C589.2 42.3 589.2 42.3 589.2 42.6C589.2 42.9 589.5 42.9 589.5 43.2C589.5 43.2 589.8 43.5 590.1 43.5H590.4ZM617.7 44.1C621.3 44.1 624.9 43.5 628.2 42.3C628.5 42.3 628.5 42.3 628.8 42L629.1 41.7C629.1 41.4 629.1 41.4 629.1 41.1C629.1 40.8 629.1 40.8 629.1 40.5L628.2 37.2C627.9 36.6 627.6 36.3 626.7 36.6C624.3 37.5 621.9 38.1 619.2 38.1C617.1 38.1 614.7 37.5 613.2 36C611.7 34.5 610.5 32.4 610.5 30.3H628.2C629.7 30.3 630.3 30 630.3 28.5V27.6C630.3 18.6 625.5 12.9 617.7 12.9C608.7 12.9 602.4 19.2 602.4 28.5C602.4 38.4 608.1 44.4 617.7 44.1ZM610.2 25.5C610.2 23.7 611.1 21.9 612.3 20.7C613.5 19.5 615.3 18.6 617.1 18.6C618 18.6 618.6 18.9 619.5 19.2C620.1 19.5 621 20.1 621.3 20.4C621.9 21 622.2 21.6 622.5 22.5C622.8 23.1 622.8 24 622.8 24.9V25.5H610.2Z" fill="black"/>
</svg>
